# Blender 3.6.2
# www.blender.org
mtllib septagon.mtl
o Circle
v 0.000000 1.000000 0.000000
v -0.781831 0.623490 0.000000
v -0.974928 -0.222521 0.000000
v -0.433884 -0.900969 0.000000
v 0.433884 -0.900969 0.000000
v 0.974928 -0.222521 0.000000
v 0.781831 0.623490 0.000000
vn -0.0000 -0.0000 1.0000
vt 0.109084 0.811745
vt 0.283058 0.049516
vt 0.987464 0.388740
vt 0.890916 0.811745
vt 0.500000 1.000000
vt 0.012536 0.388740
vt 0.716942 0.049516
s 0
f 2/1/1 4/2/1 6/3/1
f 7/4/1 1/5/1 2/1/1
f 2/1/1 3/6/1 4/2/1
f 4/2/1 5/7/1 6/3/1
f 6/3/1 7/4/1 2/1/1
